<svg xmlns="http://www.w3.org/2000/svg" xmlns:xlink="http://www.w3.org/1999/xlink" viewBox="0 0 130 130" width="130" height="130" preserveAspectRatio="xMidYMid meet" style="width: 100%; height: 100%; transform: translate3d(0px, 0px, 0px); content-visibility: visible;"><defs><clipPath id="__lottie_element_274"><rect width="130" height="130" x="0" y="0"></rect></clipPath></defs><g clip-path="url(#__lottie_element_274)"><g transform="matrix(1.2995262145996094,0,0,1.2995262145996094,65,65)" opacity="0.000014394749490378444" style="display: none;"><g opacity="1" transform="matrix(1,0,0,1,0,0)"><path stroke-linecap="butt" stroke-linejoin="miter" fill-opacity="0" stroke-miterlimit="4" stroke="rgb(245,80,80)" stroke-opacity="1" stroke-width="4" d=" M0,-48 C26.491199493408203,-48 48,-26.491199493408203 48,0 C48,26.491199493408203 26.491199493408203,48 0,48 C-26.491199493408203,48 -48,26.491199493408203 -48,0 C-48,-26.491199493408203 -26.491199493408203,-48 0,-48z"></path></g></g><g style="display: block;" transform="matrix(1,0,0,1,65,65)" opacity="1"><g opacity="1" transform="matrix(1,0,0,1,0,0)"><path fill="rgb(245,80,80)" fill-opacity="1" d=" M0,-48 C26.491199493408203,-48 48,-26.491199493408203 48,0 C48,26.491199493408203 26.491199493408203,48 0,48 C-26.491199493408203,48 -48,26.491199493408203 -48,0 C-48,-26.491199493408203 -26.491199493408203,-48 0,-48z"></path></g></g><g style="display: block;" transform="matrix(0.8771700263023376,0,0,0.8771700263023376,55.35101318359375,52.28131103515625)" opacity="1"><g opacity="1" transform="matrix(1,0,0,1,0,0)"><path stroke-linecap="round" stroke-linejoin="round" fill-opacity="0" stroke="rgb(255,255,255)" stroke-opacity="1" stroke-width="6.091" d=" M24.18000030517578,0 C24.18000030517578,0 0,25.520000457763672 0,25.520000457763672"></path></g></g><g style="display: block;" transform="matrix(0,0.8771700263023376,-0.8771700263023376,0,77.14868927001953,52.869014739990234)" opacity="1"><g opacity="1" transform="matrix(1,0,0,1,0,0)"><path stroke-linecap="round" stroke-linejoin="round" fill-opacity="0" stroke="rgb(255,255,255)" stroke-opacity="1" stroke-width="6.091" d=" M24.18000030517578,0 C24.18000030517578,0 0,25.520000457763672 0,25.520000457763672"></path></g></g></g></svg>