<svg xmlns="http://www.w3.org/2000/svg" xmlns:xlink="http://www.w3.org/1999/xlink" viewBox="0 0 500 500" width="500" height="500" preserveAspectRatio="xMidYMid meet" style="width: 100%; height: 100%; transform: translate3d(0px, 0px, 0px); content-visibility: visible;"><defs><clipPath id="__lottie_element_269"><rect width="500" height="500" x="0" y="0"></rect></clipPath></defs><g clip-path="url(#__lottie_element_269)"><g transform="matrix(3.3565890789031982,0,0,3.3565890789031982,18.395706176757812,18.395355224609375)" opacity="1" style="display: block;"><g opacity="1" transform="matrix(1,0,0,1,0,0)"><path fill="rgb(5,182,82)" fill-opacity="1" d=" M69,10 C69,10 84.31490325927734,21.8656005859375 84.31490325927734,21.8656005859375 C84.31490325927734,21.8656005859375 103.67900085449219,21.26799964904785 103.67900085449219,21.26799964904785 C103.67900085449219,21.26799964904785 109.09500122070312,39.86940002441406 109.09500122070312,39.86940002441406 C109.09500122070312,39.86940002441406 125.11199951171875,50.768001556396484 125.11199951171875,50.768001556396484 C125.11199951171875,50.768001556396484 118.55999755859375,69 118.55999755859375,69 C118.55999755859375,69 125.11199951171875,87.23200225830078 125.11199951171875,87.23200225830078 C125.11199951171875,87.23200225830078 109.09500122070312,98.13059997558594 109.09500122070312,98.13059997558594 C109.09500122070312,98.13059997558594 103.67900085449219,116.73200225830078 103.67900085449219,116.73200225830078 C103.67900085449219,116.73200225830078 84.31490325927734,116.13400268554688 84.31490325927734,116.13400268554688 C84.31490325927734,116.13400268554688 69,128 69,128 C69,128 53.68510055541992,116.13400268554688 53.68510055541992,116.13400268554688 C53.68510055541992,116.13400268554688 34.320701599121094,116.73200225830078 34.320701599121094,116.73200225830078 C34.320701599121094,116.73200225830078 28.905099868774414,98.13059997558594 28.905099868774414,98.13059997558594 C28.905099868774414,98.13059997558594 12.887700080871582,87.23200225830078 12.887700080871582,87.23200225830078 C12.887700080871582,87.23200225830078 19.440000534057617,69 19.440000534057617,69 C19.440000534057617,69 12.887700080871582,50.768001556396484 12.887700080871582,50.768001556396484 C12.887700080871582,50.768001556396484 28.905099868774414,39.86940002441406 28.905099868774414,39.86940002441406 C28.905099868774414,39.86940002441406 34.320701599121094,21.26799964904785 34.320701599121094,21.26799964904785 C34.320701599121094,21.26799964904785 53.68510055541992,21.8656005859375 53.68510055541992,21.8656005859375 C53.68510055541992,21.8656005859375 69,10 69,10 C69,10 69,10 69,10z"></path></g><g opacity="1" transform="matrix(1,0,0,1,0,0)"><path stroke-linecap="butt" stroke-linejoin="miter" fill-opacity="0" stroke-miterlimit="4" stroke="rgb(255,255,255)" stroke-opacity="1" stroke-width="8" d=" M47,66.5 C47,66.5 63.5,83 63.5,83 C63.5,83 91.5,55 91.5,55"></path></g></g></g></svg>